Coordinates
version=1
nRows=14
nColumns=40
inDegrees=yes

Units are S.I. units (second, meters, Newtons, ...)
If the header above contains a line with 'inDegrees', this indicates whether rotational values are in degrees (yes) or radians (no).

endheader
time	pelvis_tilt	pelvis_list	pelvis_rotation	pelvis_tx	pelvis_ty	pelvis_tz	hip_flexion_r	hip_adduction_r	hip_rotation_r	knee_angle_r	knee_angle_r_beta	ankle_angle_r	subtalar_angle_r	mtp_angle_r	hip_flexion_l	hip_adduction_l	hip_rotation_l	knee_angle_l	knee_angle_l_beta	ankle_angle_l	subtalar_angle_l	mtp_angle_l	lumbar_extension	lumbar_bending	lumbar_rotation	arm_flex_r	arm_add_r	arm_rot_r	elbow_flex_r	pro_sup_r	wrist_flex_r	wrist_dev_r	arm_flex_l	arm_add_l	arm_rot_l	elbow_flex_l	pro_sup_l	wrist_flex_l	wrist_dev_l
      1.84500000	      3.12750474	     -0.94559107	     -8.64070434	      1.80960430	      0.90750210	      0.25251975	    -22.71330400	     -5.25412843	    -12.61988178	     18.49199814	      0.32274625	     -4.28253543	      7.92877476	      0.00000000	     22.40482151	     -7.41291934	    -24.63436297	     16.11554787	      0.28126937	     -6.67411061	      3.24009093	      0.00000000	     -5.49113338	     -0.89784454	      1.32429352	     44.54654518	    -15.59886081	     44.54654518	     75.04310991	     44.99950170	      0.00000000	      0.00000000	     44.54654518	    -15.59886081	     44.54654518	     75.04310991	     44.99950170	      0.00000000	      0.00000000
      1.85000000	      3.26613577	     -0.50586905	     -8.68552522	      1.81760802	      0.90785710	      0.25219721	    -22.53735390	     -5.91528856	    -12.55295565	     19.63864327	      0.34275899	     -5.76064078	      6.61621671	      0.00000000	     22.23202903	     -7.04530618	    -24.57320467	     16.99637105	      0.29664264	     -6.96780123	      2.53301904	      0.00000000	     -5.43566187	     -1.49290161	      1.67411160	     44.54724839	    -15.59732620	     44.54724839	     75.04289456	     44.99950861	      0.00000000	      0.00000000	     44.54724839	    -15.59732620	     44.54724839	     75.04289456	     44.99950861	      0.00000000	      0.00000000
      1.85500000	      3.54246620	     -0.15528940	     -8.58964808	      1.82559758	      0.90849140	      0.25138754	    -22.53278371	     -6.48836919	    -12.64411127	     20.71366404	      0.36152164	     -7.48288596	      5.68308626	      0.00000000	     21.93804825	     -6.68372463	    -24.46080526	     17.92147362	      0.31278872	     -7.04182204	      1.89452304	      0.00000000	     -5.58500228	     -1.88842582	      1.88754843	     44.54752249	    -15.59672846	     44.54752249	     75.04281083	     44.99951128	      0.00000000	      0.00000000	     44.54752249	    -15.59672846	     44.54752249	     75.04281083	     44.99951128	      0.00000000	      0.00000000
      1.86000000	      3.59274419	      0.30396492	     -8.55792725	      1.83360261	      0.90875453	      0.25083088	    -22.09152986	     -7.17320296	    -12.71329429	     22.15952591	      0.38675669	     -9.03509268	      4.21512286	      0.00000000	     21.84321996	     -6.22653926	    -24.25993573	     18.72070697	      0.32673797	     -7.20765851	      1.19266871	      0.00000000	     -5.41247603	     -2.43848020	      2.16221694	     44.54821078	    -15.59522852	     44.54821078	     75.04260107	     44.99951793	      0.00000000	      0.00000000	     44.54821078	    -15.59522852	     44.54821078	     75.04260107	     44.99951793	      0.00000000	      0.00000000
      1.86500000	      3.71140965	      0.73220752	     -8.46125266	      1.84159904	      0.90912494	      0.25006939	    -21.68342947	     -7.85996142	    -12.93414078	     23.66799472	      0.41308444	    -10.67727123	      3.01867809	      0.00000000	     21.66918116	     -5.74141575	    -24.00547926	     19.50622061	      0.34044777	     -7.21997819	      0.48577306	      0.00000000	     -5.32941536	     -2.93399243	      2.37662829	     44.54894589	    -15.59362822	     44.54894589	     75.04237784	     44.99952495	      0.00000000	      0.00000000	     44.54894589	    -15.59362822	     44.54894589	     75.04237784	     44.99952495	      0.00000000	      0.00000000
      1.87000000	      3.80920457	      1.18264843	     -8.34148540	      1.84958433	      0.90948021	      0.24916471	    -21.17355964	     -8.59114796	    -13.20998829	     25.31063296	      0.44175388	    -12.35855491	      1.74233281	      0.00000000	     21.49758706	     -5.19325398	    -23.75074975	     20.23414796	      0.35315250	     -7.15419563	     -0.21732635	      0.00000000	     -5.22923951	     -3.41328381	      2.54362119	     44.54962658	    -15.59214780	     44.54962658	     75.04217182	     44.99953136	      0.00000000	      0.00000000	     44.54962658	    -15.59214780	     44.54962658	     75.04217182	     44.99953136	      0.00000000	      0.00000000
      1.87500000	      3.92655242	      1.61726297	     -8.21447162	      1.85753595	      0.90984610	      0.24828846	    -20.62630084	     -9.32437354	    -13.51191093	     27.04106183	      0.47195556	    -14.07318845	      0.42565988	      0.00000000	     21.28359873	     -4.64146229	    -23.47080054	     20.92863071	      0.36527351	     -7.01505450	     -0.88580735	      0.00000000	     -5.14926822	     -3.89339395	      2.69776685	     44.55016505	    -15.59097780	     44.55016505	     75.04200936	     44.99953638	      0.00000000	      0.00000000	     44.55016505	    -15.59097780	     44.55016505	     75.04200936	     44.99953638	      0.00000000	      0.00000000
      1.88000000	      3.98432130	      2.08578946	     -8.12767206	      1.86546174	      0.91009950	      0.24745690	    -19.89594687	    -10.14641829	    -13.84687027	     28.96216671	      0.50548517	    -15.74438810	     -0.94722165	      0.00000000	     21.08713905	     -4.03654491	    -23.19367958	     21.53133697	      0.37579272	     -6.80965519	     -1.60864742	      0.00000000	     -4.96422812	     -4.42566145	      2.85277110	     44.55070973	    -15.58979523	     44.55070973	     75.04184547	     44.99954141	      0.00000000	      0.00000000	     44.55070973	    -15.58979523	     44.55070973	     75.04184547	     44.99954141	      0.00000000	      0.00000000
      1.88500000	      3.84167142	      2.97269708	     -8.11101479	      1.87340463	      0.90977112	      0.24669033	    -18.68506252	    -11.57924227	    -14.41321427	     31.42560224	      0.54848023	    -16.87168726	     -1.79599559	      0.00000000	     21.05037393	     -2.94469521	    -22.96360717	     21.86151028	      0.38155533	     -6.72324037	     -2.66676812	      0.00000000	     -4.46205739	     -5.39603326	      3.14175127	     44.55215057	    -15.58667123	     44.55215057	     75.04141397	     44.99955449	      0.00000000	      0.00000000	     44.55215057	    -15.58667123	     44.55215057	     75.04141397	     44.99955449	      0.00000000	      0.00000000
      1.89000000	      3.95280110	      3.45604967	     -7.99274937	      1.88127174	      0.91012772	      0.24581359	    -17.97101071	    -12.42024185	    -14.69743211	     33.34642548	      0.58200492	    -18.67006922	     -3.41932292	      0.00000000	     20.73810614	     -2.27035861	    -22.75275239	     22.34383853	      0.38997355	     -6.39097268	     -3.20880621	      0.00000000	     -4.36357108	     -5.90500727	      3.30450237	     44.55268963	    -15.58550423	     44.55268963	     75.04125336	     44.99955930	      0.00000000	      0.00000000	     44.55268963	    -15.58550423	     44.55268963	     75.04125336	     44.99955930	      0.00000000	      0.00000000
      1.89500000	      3.78654641	      4.67378596	     -8.12263687	      1.88924741	      0.90951657	      0.24541254	    -16.52426259	    -14.37398388	    -15.28198947	     36.10582613	      0.63016555	    -19.60373191	     -4.17677639	      0.00000000	     20.62115006	     -0.82891179	    -22.78349107	     22.38000109	      0.39060471	     -6.32257611	     -4.23865371	      0.00000000	     -3.71486410	     -7.22229730	      3.90947963	     44.55485700	    -15.58082132	     44.55485700	     75.04061199	     44.99957815	      0.00000000	      0.00000000	     44.55485700	    -15.58082132	     44.55485700	     75.04061199	     44.99957815	      0.00000000	      0.00000000
      1.90000000	      3.80505273	      5.13519710	     -8.10079342	      1.89689990	      0.90975495	      0.24467071	    -15.55805879	    -15.20336606	    -15.27061677	     38.14129301	      0.66569114	    -21.32947430	     -6.00352710	      0.00000000	     20.33835615	     -0.18275618	    -22.64000154	     22.71114153	      0.39638420	     -5.94257997	     -4.77008859	      0.00000000	     -3.52071773	     -7.72610517	      4.07112333	     44.55551382	    -15.57940515	     44.55551382	     75.04041901	     44.99958372	      0.00000000	      0.00000000	     44.55551382	    -15.57940515	     44.55551382	     75.04041901	     44.99958372	      0.00000000	      0.00000000
      1.90500000	      3.63847407	      6.41070033	     -8.35219332	      1.90476369	      0.90905440	      0.24455621	    -13.98822616	    -17.24503757	    -15.52341753	     40.90878987	      0.71399308	    -22.15453143	     -6.89980217	      0.00000000	     20.18169974	      1.27574683	    -22.90696106	     22.63739974	      0.39509716	     -5.78394815	     -5.59089682	      0.00000000	     -2.82571514	     -9.07562728	      4.90137504	     44.55774038	    -15.57461460	     44.55774038	     75.03976957	     44.99960212	      0.00000000	      0.00000000	     44.55774038	    -15.57461460	     44.55774038	     75.03976957	     44.99960212	      0.00000000	      0.00000000
      1.91000000	      3.63734576	      6.84322174	     -8.39664429	      1.91225188	      0.90927907	      0.24391193	    -12.89018331	    -18.05141920	    -15.32300861	     42.96262038	      0.74983918	    -23.70787278	     -8.72438919	      0.00000000	     19.84704676	      1.89685803	    -22.86035689	     22.81259979	      0.39815498	     -5.35619929	     -6.05242898	      0.00000000	     -2.60459821	     -9.55869059	      5.05986878	     44.55840086	    -15.57319654	     44.55840086	     75.03957831	     44.99960743	      0.00000000	      0.00000000	     44.55840086	    -15.57319654	     44.55840086	     75.03957831	     44.99960743	      0.00000000	      0.00000000
